<?xml version="1.0" encoding="UTF-8"?>
<svg data-bbox="-0.01 -0.02 70913.547 42912.91" viewBox="0 0 70913.54 42912.89" height="2529.744" width="4180.384" xmlns="http://www.w3.org/2000/svg" shape-rendering="geometricPrecision" text-rendering="geometricPrecision" image-rendering="optimizeQuality" fill-rule="evenodd" clip-rule="evenodd" data-type="color">
    <g>
        <path d="M8180.79 29593.85c40.2 97.3-20.1 24.32 80.4 48.65 20.11 0 100.5 12.16 120.6 0h261.3c0-12.16 0-12.16 80.4-24.32 60.3 0 80.4 0 120.6 12.16l-40.2-12.16c40.2 72.98 0 24.32 80.4 60.82 140.7 48.66 402 85.14 502.5 377.07 180.9 437.88-160.8 2250.25-241.2 2736.78-80.4 596.02-140.7 1216.35-301.51 1739.38-201 608.17-361.8 596.01-884.41 668.99-80.4 12.16-120.6 12.16-221.1 12.16h-140.7c-120.6 12.17-100.5 24.33-120.6 36.49h241.21c-140.7 48.66-3035.14 36.49-3698.44 24.32-60.3 0-241.2-36.49-140.7-12.16v-72.98l20.1-304.09c40.2-36.49 20.1 60.82 20.1-72.98-60.3-85.14-20.1-109.47-20.1-243.27 40.2 72.98 40.2 0 40.2 121.63l20.11-85.14c-80.4-109.47-40.21-97.3-20.11-231.1 40.21 60.82 20.11 0 20.11 109.47l20.1-97.3c-60.31-85.15-20.1-267.6 0-377.07l20.1 72.98 20.1-85.14c0-12.16 20.1-97.31 20.1-109.47l201-1483.95c-40.2-24.32-60.3-24.32-40.2-145.96l140.7-790.63c20.11-36.49 20.11 12.16 20.11-85.14-60.31-85.14-40.21-85.14-20.11-206.78 0-48.66 20.11-121.64 40.21-194.62v85.14c40.2-36.49 20.1 48.66 20.1-72.98-40.2-60.82-20.1 12.16-20.1-109.47 0 0 80.4-668.99 100.5-693.32v85.14c20.1-24.32 20.1 12.16 20.1-72.98-60.3-109.47-40.2-97.31-20.1-231.11 40.2 60.82 40.2 0 20.1 109.47 20.1-12.16 20.1-24.32 20.1-24.32v-12.17c20.1-36.49 20.1-36.49 20.1-60.82-60.3-72.98-40.2-72.98-40.2-182.45 20.1-72.98 20.1-97.31 40.2-170.29l20.11 36.49c40.2-12.17 20.1 48.65 20.1-72.98-60.31 48.65-40.21 0 201 0H7638.1c301.51 0 683.41 36.49 984.91 12.16l-442.2-12.16zm-6210.97-2323.23c20.1 24.32 20.1 12.16 0 109.47v109.47c-100.5 48.66-20.1-24.32-40.2 109.47l-221.1 1800.2c-221.1 1885.34-502.51 3880.16-743.71 5765.5L60.3 42389.85l-60.31 389.23v121.64c361.8 0 2713.53-72.98 2854.23 12.16l60.3-24.32 623.11-4950.55c0-72.98 40.21-255.43 40.21-340.58h5004.95c582.91 0 1628.12-158.13 2090.42-425.73 1005.01-547.36 1145.71-2104.29 1266.31-3138.18 140.7-1313.66 341.71-2615.15 482.41-3928.81 100.5-887.93 261.3-2152.94-703.51-2615.15-80.4-36.49-160.8-60.82-221.1-97.3-60.3 36.49-120.6 24.32-201-12.16h60.3c-20.1-48.66 40.2-36.49-40.2-36.49l-100.5 12.16c-20.1 0-80.4-12.16-100.5-24.32l40.2 12.16c-20.1-60.82 40.2-48.66-60.3-48.66l-80.4 24.33-60.3-12.16 60.3-12.17c-20.1-36.49 60.31-24.32-60.3-24.32-60.3 60.82 0 24.32-100.5 24.32-40.21 0-80.4-12.16-100.5-24.32h120.6c-40.2-24.32 0-12.16-60.31-24.32-20.1-12.16-40.2 0-60.3 0l-120.6 12.16c-60.3 0-80.4-12.16-120.6-12.16l-8482.29-36.49-20.1 12.16v-60.82c-40.21 36.49-40.21-48.65-40.21 109.47z" fill="#2e5180" data-color="1"/>
        <path d="M43637.56 34653.87c40.2 36.49 60.3-72.98 20.1 85.14-20.1 48.66-20.1 24.33-40.21 72.98-20.1 60.82-40.2 133.8-80.4 72.98l-20.1 24.33c20.1 12.16 100.5-24.33-60.3 133.8-140.7 133.8-120.6 97.3-160.8 72.98v24.32c0 24.33 40.2 0-40.2 48.66-100.5 72.98-80.4 36.49-100.5 0l-20.1 24.32c20.1 24.33 80.4 12.17 0 24.33-60.3 12.16-20.1 12.16-60.3-24.33-140.7 97.31-3658.24 48.66-4120.54 48.66l402-2834.09c60.3-486.54 120.6-936.59 201-1423.13l180.9-1435.29h3859.24c1025.12 0 643.21 924.43 562.81 1727.22-60.3 389.23-120.6 741.97-160.8 1131.2-40.2 279.76-281.4 2092.12-361.8 2225.92m-6492.37-7383.25c-100.5 72.98 20.11-48.66-40.2 48.66 0 24.32 0 72.98-20.1 85.14l-140.7 1143.37c-381.9 2578.66-723.6 5145.16-1085.41 7723.83-40.2 243.27-180.9 1106.87-180.9 1301.49h7537.58c1246.22 0 2371.82-486.54 3015.04-1520.44 381.9-656.83 442.2-1654.23 562.81-2457.02 120.6-875.78 241.2-1775.87 361.8-2639.48 120.6-766.3 361.8-2019.14 120.6-2663.8-140.7-377.07-381.9-620.34-723.61-790.63-201-97.31-341.7-145.97-562.81-206.78-140.7-36.49-482.4-109.47-643.2-109.47-80.4 60.82-160.8 36.49-261.3 36.49-80.4-12.16-160.8-12.16-241.2-12.16-180.9-12.16-341.71-12.16-522.61-12.16h-5105.45c-663.3 0-1386.91-24.32-2050.22 0l-20.11 72.98z" fill="#2e5180" data-color="1"/>
        <path d="m15999.77 34970.12-20.1-12.16c-60.31 24.32 0 72.98-20.1 0-40.21-72.99-20.1 24.32 0-36.49l-20.1-12.16c-40.21 24.32-40.21 60.82-80.4-194.62-20.1-255.43 40.2-559.52 80.4-814.96v97.31s0-12.16 20.1-12.16v-85.15c-40.21-48.65-20.1-121.64-20.1-170.29 20.1-48.66 20.1-97.31 40.2-158.13v48.66c60.3-72.98 80.4-316.25 80.4-413.56 60.3-377.07 381.9-2882.75 442.2-3065.2 80.4-255.43 261.31-425.73 482.41-523.03 241.2-85.14 643.2-48.66 964.81-48.66h2512.53c502.5 0 723.6 279.76 643.2 851.45l-502.51 3527.42c-80.4 620.34-100.5 1021.74-643.2 1252.84-100.5 36.49-40.2 0-60.3 36.49-40.21 24.32-20.1 24.32-60.31 24.32-120.6 12.16 0 24.33-40.2-24.32-140.7 0-40.2 0-80.4 36.49l80.4 24.33-3417.03-24.33 100.5-12.16-80.4-24.32c-60.3 48.66 0 24.32-60.3 24.32-80.4 0-40.21-12.16-20.11-12.16l-20.1-36.49c-60.3 48.66-281.4-24.32-201-109.47l-60.3-36.49c20.1 36.49 0 36.49-20.1 60.82v-12.16l-40.2-72.98c0-48.66-20.1 0 20.1-72.98zm6170.76-7784.64c-40.2 48.66 40.2 12.16-80.4 36.49l-5085.35-24.32c-221.1 0-603.01 60.82-723.61-12.16-542.71 0-1326.62 267.6-1748.72 596.01-844.21 620.34-884.41 1569.09-1025.11 2505.68l-422.1 3113.86c-100.5 620.34-321.61 1751.54-221.1 2335.39 0 97.31 20.1 170.29 60.3 255.43 261.3 1070.39 1407.01 1581.25 2532.63 1581.25h4723.55c783.91 0 1587.92-279.76 2190.92-754.13 984.91-766.3 1025.11-1715.05 1206.01-2919.24 180.9-1374.48 381.9-2761.11 562.81-4135.59 160.8-1046.06 120.6-1933.99-984.91-2359.72-221.1-85.14-703.5-206.78-984.91-218.94z" fill="#2e5180" data-color="1"/>
        <path d="M62431.25 27221.96c-120.6 0-20.1-12.16-60.3 24.33l80.4 12.16h-80.4c-40.2 0-40.2-12.16-60.3-12.16-361.8 0-1085.41 279.76-1407.02 535.19l-402 413.56c-60.3 72.98-100.5 158.13-140.7 243.27-301.51 547.36-361.8 1265-462.31 1909.67-20.1 194.62-80.4 498.71-80.4 717.65-40.2 960.92 261.3 1654.23 1065.31 2092.12 301.51 158.12 804.01 340.58 1266.32 340.58h3155.73c864.31 0 1628.12-133.8 1628.12 754.14 0 243.27-60.3 462.21-160.8 620.34-241.2 389.23-603.01 389.23-1206.01 389.23h-6371.76l-301.51 2165.1c-20.1 182.45-60.3 145.96 422.1 145.96h6753.67c462.3 0 783.91-12.16 1145.71-72.98 1266.31-206.78 2291.42-1070.39 2552.73-2359.72 80.4-340.58 120.6-717.65 160.8-1082.55 120.6-790.63 180.9-1471.79-261.3-2006.98-703.51-887.93-2572.83-729.81-4180.84-729.81h-1206.01c-381.9 0-924.61 60.82-1165.81-85.14-462.31-243.27-361.8-1277.17 281.4-1593.42 261.3-133.8 783.91-72.98 1165.81-72.98h5507.46c482.41 0 502.51 60.82 522.61-121.64l221.1-1593.42c20.1-133.8 80.4-413.56 80.4-559.52l-60.3-109.47c-100.5 36.49-6271.27 12.16-7396.88 12.16-100.5 0-924.61 72.98-1005.01 24.32z" fill="#2e5180" data-color="1"/>
        <path d="M48763.11 27367.93c-80.4 72.98 0-36.49-40.21 60.81-20.1 24.33-20.1 36.49-20.1 60.82 0 48.66 0 85.15-20.1 158.13l-944.71 6775.07c-180.9 1179.86-221.1 2225.92 964.81 2834.1 281.41 133.8 723.61 267.6 1045.22 291.92 844.21 48.66 1788.92 24.32 2673.32 24.32h5366.76l1447.21-10326.81c-20.1-12.16-20.1-12.16-20.1-24.33 0 0-20.1 0-20.1-12.16 0-24.32-2613.03-12.16-2854.23-12.16-60.3 121.64-60.3 304.09-100.5 437.89v-60.82c-40.21 24.32-20.1-60.82-20.1 72.98 40.2 48.66 60.3 109.47 0 206.78v-85.14c-40.21 36.49-40.21-48.66-40.21 72.98 80.4 72.98 60.31 60.82 20.1 170.29 0 60.82-20.1 85.15-20.1 158.13l-120.6 863.61c-60.31 36.49-40.2-48.66-40.2 72.98 40.2 48.66 40.2 133.8 0 194.62v-85.14c-40.21 36.49-40.21-60.82-40.21 85.14 40.21 36.49 20.1 0 40.21 72.98 0 24.33 0 60.82-20.11 97.31 0 48.65 0 194.62-20.1 97.3-60.3 60.82-20.1-24.32-40.2 60.82l-80.4 620.34c-80.4 559.52-683.41 4670.78-683.41 4914.06h-3236.13c-1507.52 0-1286.42-583.85-1085.41-1909.68l804.01-5704.68-20.1-60.82c40.2-36.49 40.2 85.15 40.2-109.47-20.1-24.33-20.1 12.16-20.1-60.82v-121.64l-2874.33 12.16-40.2 218.94 20.1-60.81z" fill="#2e5180" data-color="1"/>
        <path d="M25567.47 27392.25c-60.31 60.82-20.11 0-40.21 72.98l-1386.91 9913.25c-40.2 231.11-60.3 194.62 180.9 194.62h2753.73l120.6-1009.57c60.3-340.58 100.5-668.99 140.7-997.41l783.91-5485.74c20.1-121.64 60.3-377.07 60.3-510.87h3356.73c1266.31 0 1145.71 547.36 1045.21 1325.82-40.2 255.43-80.4 510.87-120.6 754.14-20.1 255.43-804.01 5631.7-804.01 5923.62h2934.62l1045.22-7431.9c140.7-948.76 140.7-1946.16-743.71-2517.85-321.61-206.78-904.51-425.72-1286.42-437.88-40.2 36.49 40.21 24.32-100.5 36.49l-7919.48-24.32c0 97.3-20.1 182.45-20.1 291.92v-97.3z" fill="#2e5180" data-color="1"/>
        <path d="M10753.61 27246.29c-321.61-24.33-643.2-85.15-1025.11-85.15H2010.02v60.82l20.1-12.16 8482.29 36.49c40.2 0 60.3 12.16 120.6 12.16zm201 24.32h-201c20.1 12.16 60.3 24.32 100.5 24.32 100.5 0 40.2 36.49 100.5-24.32m140.7 24.32h-80.4l-60.3 12.17 60.3 12.16zm221.1 48.66c-80.4-12.16-80.4-24.32-160.8 0l-40.2-12.16c20.1 12.16 80.4 24.32 100.5 24.32zm180.9 48.66c-80.4-12.16-60.3-24.32-140.7-12.16h-60.3c80.4 36.49 140.7 48.65 201 12.16m-9527.5 97.3v-109.47c20.1-97.31 20.1-85.15 0-109.47 0 97.31-40.2 85.14 0 218.94" fill="#31395e" data-color="2"/>
        <path d="M25567.47 27392.25v97.3c0-109.47 20.1-194.62 20.1-291.92l7919.48 24.32c140.7-12.16 60.3 0 100.5-36.49-160.8 0-261.3-24.33-462.3-24.33h-7577.78c-20.11 97.31-40.21 121.64 0 231.11z" fill="#31395e" data-color="2"/>
        <path d="M62431.25 27221.96c80.4 48.66 904.51-24.32 1005.01-24.32 1125.61 0 7296.37 24.32 7396.88-12.16l60.3 109.47 20.1-60.81v-72.99h-7457.18c-160.8 0-361.8-12.16-522.6 0-140.7 12.17-361.8 60.82-502.51 60.82zm-60.3 24.33h-60.3c20.1 0 20.1 12.16 60.3 12.16h80.4z" fill="#31395e" data-color="2"/>
        <path d="M16281.17 27185.48c120.6 72.98 502.51 12.16 723.61 12.16l5085.35 24.32c120.6-24.32 40.2 12.17 80.4-36.49-140.7 0-180.9-24.33-321.6-24.33-1688.42-12.16-3497.44 0-5205.96 0-140.7 0-201 24.33-361.8 24.33z" fill="#31395e" data-color="2"/>
        <path d="m37145.19 27270.62 20.11-72.98c663.3-24.32 1386.91 0 2050.22 0h5105.45c180.9 0 341.71 0 522.61 12.16 80.4 0 160.8 0 241.2 12.16 100.5 0 180.9 24.33 261.3-36.49-180.9 0-281.4-24.33-482.4-24.33H37125.1l20.1 109.47z" fill="#31395e" data-color="2"/>
        <path d="M3979.85 34386.27c0-133.8 40.2-133.8 20.1-304.09l-20.1-72.98c-20.1 109.47-60.31 291.92 0 377.07m-20.1 218.94v-121.64c0-109.47 20.1-48.65-20.11-109.47-20.1 133.8-60.3 121.63 20.11 231.1zm-40.21 206.78 20.1-121.64c0-121.63 0-48.65-40.2-121.63 0 133.8-40.2 158.12 20.1 243.27m-40.2 377.07c0-145.96 40.2-133.8 20.1-304.09zm3597.94 60.82c-241.2-36.49-3457.23-36.49-3597.94 12.16-100.5-24.32 80.4 12.16 140.7 12.16 663.3 12.17 3557.74 24.33 3698.44-24.32h-241.21z" fill="#31395e" data-color="2"/>
        <path d="M4582.85 29593.85c201 72.98 1487.41 24.32 1809.02 24.32 301.5 0 1608.02 48.66 1788.92-24.32l442.2 12.16c-301.5 24.32-683.4-12.16-984.91-12.16H4783.85c-241.21 0-261.31 48.65-201 0m4221.04 24.32 40.2 12.16c-40.2-12.16-60.3-12.16-120.6-12.16-80.4 12.16-80.4 12.16-80.4 24.32 100.5 0 60.31 12.16 160.8-24.32m-4261.25 364.9c0-145.96 40.21-158.12 20.11-316.25l-20.11-36.49c-20.1 72.98-20.1 97.31-40.2 170.29 0 109.47-20.1 109.47 40.2 182.45m-40.2 218.95v-121.64c20.1-109.47 20.1-48.66-20.1-109.47-20.1 133.8-40.2 121.64 20.1 231.11m-100.5 790.63c0-109.47 40.2-255.43 60.3-340.58 0-145.97 20.1-218.95 20.1-377.07v-85.14c-20.1 24.32-100.5 693.32-100.5 693.32 0 121.64-20.1 48.66 20.1 109.47m-40.2 389.23c0-145.96 40.2-145.96 20.1-316.25v-85.14c-20.1 72.98-40.21 145.96-40.21 194.62-20.1 121.64-40.2 121.64 20.11 206.78zm-120.6 1021.73c0-304.08 100.5-608.17 100.5-936.59l-140.7 790.63c-20.1 121.64 0 121.64 40.2 145.96" fill="#31395e" data-color="2"/>
        <path d="M56240.39 27574.71v60.82c40.2-133.8 40.2-316.25 100.5-437.89 241.2 0 2854.23-12.16 2854.23 12.16 0 12.16 20.1 12.16 20.1 12.16 0 12.17 0 12.17 20.1 24.33v-85.15h-2954.73c-20.1 109.47-40.2 279.77-40.2 413.56zm-20.1 194.62v85.14c60.3-97.31 40.2-158.12 0-206.78zm-160.8 1265 120.6-863.61c0-72.98 20.1-97.31 20.1-158.13 40.21-109.47 60.31-97.3-20.1-170.29 0 158.12-40.2 413.56-80.4 583.85-20.1 145.96-80.4 462.21-40.2 608.17zm-40.2 182.45v85.14c40.2-60.82 40.2-145.96 0-194.62v109.47zm-40.21 352.74c20.1 97.31 20.1-48.66 20.1-97.3 20.11-36.49 20.11-72.98 20.11-97.31-20.11-72.98 0-36.49-40.21-72.98 0 121.64-40.2 109.47 0 267.6z" fill="#31395e" data-color="2"/>
        <path d="m48763.11 27367.93-20.1 60.81 40.2-218.94 2874.33-12.16v121.64c0 72.98 0 36.49 20.1 60.82 0-85.15 20.11-85.15 20.11-218.95h-2753.73c-201 0-241.21 0-180.9 206.78zm2894.43 182.45-20.1-60.82z" fill="#31395e" data-color="2"/>
        <path d="M15959.57 33899.73c20.1-121.64 60.3-145.96 20.1-279.76v-48.66c-20.1 60.82-20.1 109.47-40.2 158.13 0 48.65-20.11 121.64 20.1 170.29m-20.1 1009.57c-20.11-158.13-60.31-231.11-40.21-450.05 0-158.13 40.21-279.76 40.21-462.21v-97.31c-40.21 255.43-100.5 559.52-80.4 814.96 40.2 255.43 40.2 218.94 80.4 194.62zm40.2 48.66-20.1-36.49c-20.1 60.82-40.21-36.49 0 36.49 20.1 72.98-40.21 24.32 20.1 0m60.3 109.47c-40.2-60.82-20.1-24.32-40.2-97.3-40.2 72.98-20.1 24.32-20.1 72.98l40.2 72.98v12.16c20.1-24.32 40.2-24.32 20.1-60.82m261.3 145.96-201-109.47c-80.4 85.14 140.7 158.12 201 109.47m100.5 24.33-80.4 12.16c-20.1 0-60.3 12.16 20.11 12.16 60.3 0 0 24.33 60.3-24.32zm3316.54 36.49-3236.14-12.16-100.5 12.16 3417.03 24.33-80.4-24.33zm180.9-36.49h-100.5c40.2 48.66-80.4 36.49 40.2 24.32 40.21 0 20.1 0 60.31-24.32z" fill="#31395e" data-color="2"/>
        <path d="M2854.23 42912.89c-140.7-85.14-2492.43-12.16-2854.23-12.16v12.16z" fill="#6892b7" data-color="3"/>
        <path d="M43537.05 34884.97c40.2 60.82 60.3-12.16 80.4-72.98 20.11-48.65 20.11-24.32 40.21-72.98 40.2-158.12 20.1-48.66-20.1-85.14 0 36.49-20.11 72.98-40.21 121.64 0 24.32 0 24.32-20.1 48.65-20.1 60.82 0 24.33-40.2 60.82zm-241.2 231.11c40.2 24.32 20.1 60.82 160.8-72.98 160.8-158.13 80.4-121.64 60.3-133.8-40.2 60.82-40.2 48.66-100.5 109.47-20.1 24.33-20.1 36.49-40.2 48.66-60.3 48.66-20.1 24.33-80.4 48.66zm-140.7 72.98c20.1 36.49 0 72.98 100.5 0 80.4-48.66 40.2-24.32 40.2-48.66zm-80.4 24.32c40.2 36.49 0 36.49 60.3 24.33 80.4-12.16 20.1 0 0-24.33z" fill="#31395e" data-color="2"/>
        <path d="m22328 6330.06 20-48.42zm0 0-660.03 3376.83c-100 556.75-220.01 1113.51-320.02 1682.37-40 157.35-60 278.38-80 423.62-40 157.35 20 157.35 160.01 326.79l2260.09 2771.67c80.01 96.83 140.01 181.55 220.01 278.38l460.02 556.75c80 96.82 140 181.55 220.01 278.37 100 96.83 160.01 181.55 240.01 278.38l440.02 556.75c80 84.72 160.01 205.76 240.01 266.28-20-96.83-200.01-314.69-260.01-411.52-100-145.24-180-278.37-280.01-423.62-200.01-290.48-380.02-556.75-580.03-847.23l-2260.09-3352.63c-40.01-60.52-120.01-169.45-140.01-205.76-60-121.03 120.01-702 160.01-847.23 120.01-508.34 1340.05-5519.13 1400.06-5628.06l1360.06-1452.41c220.01-254.17 80-145.24 460.02-242.07l1440.06-326.79c100-24.2 180-60.52 300.01-60.52l60 762.51c20 145.24-20 181.55 60 242.07 0-145.24 40-242.07 60-387.31l140.01-774.61c0-96.83-60-278.38-80.01-387.31-140-496.24-260.01-980.37-380.01-1476.61 380.01 254.17 720.03 568.86 1060.04 835.13 960.03 738.3 2000.08 1609.75 2960.12 2323.85l1460.06 1137.71c60 48.42 80.01 48.42 120.01 133.14l220.01 1210.34 120.01 1307.16c20 169.45-320.02 1258.74-400.02 1500.81-20 96.83-80 278.38-80 387.31-200.01-12.1-480.02-108.93-680.03-169.45l-1300.05-351c-220.01-60.52-1200.05-290.49-1340.05-363.11-140-84.72-940.04-1270.85-1120.05-1391.88 40.01 181.55 300.01 556.75 400.02 738.3l400.02 726.2c160.01 254.17 100 157.35 460.02 314.69l2040.08 847.24c60 24.2 80.01 24.2 120.01 72.61-260.01 0-620.03 121.03-880.03 169.45-340.02 72.61-500.02-72.62-800.03-193.65-320.02-133.14-1180.05-496.24-1500.06-653.58l-780.04 677.79c-80 96.83-100 229.97-140 363.1-40 193.65-80 338.9-140 520.45-120.01 556.75-120.01 435.72 320.01 1125.61l1420.06 2202.81c300.01 459.93 620.03 919.86 900.04 1403.99 60 84.72 100 133.14 140 217.86-280.01 0-580.02 96.83-840.03 133.14-220.01 36.31-480.02-217.86-640.02-314.69-540.02-326.79-1060.04-689.89-1600.07-1028.78-120.01-72.62-300.01-217.86-420.02-254.17 80.01 108.93 540.02 568.86 660.03 665.68 240.01 181.55 460.02 447.83 680.03 665.68 60 48.42 100 108.94 160.01 157.35l520.02 496.24c260.01 254.17 160.01 205.76 1040.04 60.52l3460.14-544.65c200.01-36.31 380.01-60.52 580.02-96.83 160.01-24.2 420.02-60.52 580.03-96.82 40-84.73 60-157.35 100-266.28l2200.09-7044.15c40-157.35-200.01-919.85-260.01-1137.72-20-96.82-20-229.96-60-302.58h-1440.06c-20 242.07-580.03 1391.88-600.02 1597.64 0 96.83 0 36.31 40 121.03l200.01 375.2c120.01-12.1 520.02-290.48 640.02-363.1 120.01-72.62 220.01-133.14 320.02-193.65 100-60.52 220.01-133.14 320.01-205.76 0-181.55 0-580.96-40-726.2-100 0-280.01 48.41-380.01 72.62 80 278.38 80 24.21 80 484.13-260.01 169.45-440.02 411.52-680.03 580.96-20-121.03-100-302.58-100-375.2 0-60.52 100-266.28 120-351l280.02-689.89 860.04 48.41c60 254.17 180 774.61 180 1016.68-160.01 72.62-280.01 181.56-400.02 278.38-400.02 290.48-820.04 641.48-1220.05 907.75l-680.03-738.3c80-338.89 420.02-1222.44 560.02-1633.95 60-193.65 140-363.11 200.01-556.75 400.02-96.83 1260.05-217.86 1700.07-278.38 220.01-24.21 380.01-72.62 620.02-72.62 20 217.86 500.02 1670.26 600.02 2009.16 140.01 472.03 140.01 351 40.01 859.34-20 133.14-60 302.58-80.01 435.72l-1060.04 5240.75c-120 593.07-220.01 1186.13-360.01 1767.09-40.01 157.34-140.01 193.65-280.02 254.17-120 48.41-240.01 96.82-380.01 157.34l-1460.06 653.58c-240.01 108.93-480.02 217.86-740.03 326.79-60 24.21-100 48.42-160.01 84.73l-1080.04 472.03c-80.01 36.31-120.01 60.52-200.01 84.73l-3280.14 1476.61c-240.01 96.83-400.02-108.93-680.03-302.58l-3440.14-2360.16c-400.02-266.27-1560.07-1101.4-1900.08-1270.85 40 133.14 1000.04 1670.26 1140.05 1888.12 240.01 399.41 140 351 640.02 568.86l420.02 181.55c-900.04 217.86-1940.08 532.55-2860.12 786.72-120.01 36.31-100 60.52-200.01 0l-340.01-242.07c-80.01-48.41-140.01-72.61-180.01-133.13 140-36.31 920.04-484.14 1060.04-568.86 80-48.41 320.02-181.55 380.01-193.65-20-121.03-140-363.1-180-472.03l-1280.05-3025.84c-40.01-96.82-80.01-145.24-100-254.17 160 84.73 900.04 435.72 1060.04 447.83l-240.01-568.86c-100-193.65-160.01-387.3-240.01-593.06l-1080.04-2602.22c-80.01-145.24-60-133.14 0-278.38 420.01-992.48 780.03-1960.74 1160.04-2953.22 160.01-399.41 320.02-762.51 480.02-1161.92l340.01-871.44c20-60.52 40-84.73 60-145.24 0-36.31 0-36.31 20-72.62l40.01-84.72zm3360.13-4284.59c-280.01 60.52-2360.09 1077.19-2500.1 1077.19-60 0-120-72.61-160-121.03l-420.02-399.41c-100-84.73-180-193.65-280.01-278.38-60-48.41-80.01-60.52-160.01-121.03-200.01-205.75-220.01-133.14-560.02-133.14-160.01 0-220.01 157.35-320.02 242.07-100 108.93-180 193.65-280.01 290.48-420.02 411.51-1120.05 1149.82-1520.06 1585.54l-980.04 1016.68c-60 60.52-80 72.62-80 181.55 60 447.83-80.01 326.79 240.01 641.48 180 181.55 720.03 738.3 860.04 835.13-60 266.28-400.02 1065.1-520.02 1343.47-80 229.97-160.01 435.72-260.01 665.69-80 217.86-220.01 459.92-280.01 689.89-280.02 0-560.02-12.1-840.03 0-160.01 0-240.01 24.2-420.02 24.2-180 0-240.01-36.31-360.02 72.62-20 36.31-60 60.52-100 96.82-160.01 193.65-180 157.35-180 459.93 0 290.48-20 568.86 0 859.34 0 145.24 20 229.96 20 399.41v859.34c0 157.34 20 229.96 20 399.41 0 605.17 20 1113.51 20 1694.47 120 60.52 360.01 351 440.02 351l1480.06-24.2c40 169.45 540.02 1222.44 600.02 1391.88 160.01 326.79 460.02 1077.2 620.03 1379.78-120.01 72.62-1060.04 1065.1-1060.04 1137.72 0 556.75-60 411.51 360.02 835.13l1240.05 1174.03c60 72.62 100 133.14 180 193.65 80.01 72.62 140.01 108.93 220.01 193.65 140 133.14 260.01 254.17 400.02 399.41 80 84.72 140 108.93 220.01 193.65 620.02 605.17 380.01 568.85 1080.04 568.85 120.01 0 460.02-435.72 560.02-544.65 640.02-641.48 420.01-629.38 900.04-447.83 360.02 145.24 2100.09 835.13 2340.09 895.65l40 1379.78c0 145.24 0 145.24 80.01 217.86 100 84.73 220.01 229.96 300.01 290.48 60 48.42 320.01 0 520.02 0h580.03c220.01 0 360.01-24.2 560.02-24.2 280.02 0 2700.11 0 2820.12-84.73 20-24.2 240.01-242.07 280.01-290.48 140.01-133.14 40.01-278.38 40.01-484.13 0-351 60-835.13-20-1137.72 160.01-36.31 2220.09-956.17 2540.1-1101.4 120.01 157.34 300.01 278.37 440.02 399.41 140.01 133.14 600.02 677.79 720.03 677.79 480.02 0 520.02 12.1 820.04-338.89 40-60.52 40-72.62 100-121.03 160-181.55 340.01-338.9 500.02-520.45l520.02-532.55c80.01-84.73 120.01-121.03 200.01-217.86l400.02-411.51c40-48.41 80.01-72.62 120.01-108.93l500.02-544.65c80-72.62 400.02-399.41 400.02-459.93 0-726.2 40-423.62-540.02-992.48-180.01-193.65-340.02-399.41-560.02-544.65 180-375.2 360.02-931.96 520.02-1331.37 100-205.75 520.02-1222.44 540.03-1367.68h480.02c180 0 280.01-24.2 440.02-24.2 580.03 0 560.02 72.62 800.03-169.45 320.02-314.69 220.01-229.96 220.01-738.3 0-181.55-40-266.27-40-447.82 20-169.45 0-326.79 0-484.14l-40.01-1863.92c-20-290.48 0-665.68 0-968.27 0-193.65-60-193.65-180-302.58-40-48.41-180-217.86-240.01-217.86h-960.04c-220.01 0-320.02 24.21-540.02 24.21-200.01-363.1-700.03-1597.64-900.04-2069.68-60-121.03-100-229.96-160.01-351-40-96.82-120.01-254.17-140-351 0-24.21 940.04-1016.68 1060.04-1089.31-160.01-617.27 220.01-387.3-500.02-992.48-40.01-36.31-80.01-72.61-120.01-108.93l-1740.07-1682.37c-100-84.72-800.03-823.02-900.04-823.02-640.02 0-400.02-96.83-760.03 266.27-200.01 205.76-660.03 726.21-820.04 847.24-240.01-60.52-460.01-181.56-680.03-254.17-300.01-108.94-1780.07-653.58-2020.09-786.72 0-302.58 20-847.23-20-1125.61V508.31c-20-145.24-20-133.14-100-217.86-60-48.41-260.01-266.28-300.01-278.37l-220.01-12.1h-220.01l-4020.17 121.03-260.01 290.48c-140 121.03-80 314.69-80 496.24 0 217.86 20 363.1 20 556.75v580.96z" fill="#f2a938" data-color="4"/>
        <path d="M43888.88 18215.55c0-605.17 200.01-1137.72 540.02-1609.75 60-72.62 100-96.83 160.01-169.45 140-181.55 500.02-423.62 700.03-532.55 560.02-278.37 760.03-266.27 1360.05-266.27 1140.05 0 2340.1 1186.12 2340.1 2348.05 0 520.44-20 871.44-260.01 1331.37-100 205.76-360.02 568.86-520.02 714.1l-340.01 266.27c-1320.06 871.44-3040.12 387.31-3740.15-1040.89-120.01-278.37-240.01-726.2-240.01-1040.89zm-2160.09-3631.01c-160.01 217.86-300.01 447.82-460.02 677.79-200.01 0-1220.05-108.94-1340.05-60.52-80.01 24.2-220.01 181.55-260.01 217.86-180.01 133.14-140 36.31-180.01 520.45-40 338.89-40 762.51-80 1137.71l-60 907.76c0 145.24-20 290.48-20 447.82l-40.01 447.83c-20 266.28-40 617.27-60 895.65-20 290.48 120 266.27 360.01 605.17 480.02 0 920.04 72.62 1380.06 72.62 40 157.34 360.02 665.68 360.02 762.51 0 60.52-600.02 895.65-700.03 1052.99-60 96.82 20 447.82 60 556.75 20 72.61 0 36.31 80.01 96.82 1140.05 762.51 2340.09 1537.13 3460.14 2311.74 80 48.41 120 96.82 240.01 84.72 80-12.1 200.01-48.41 280.01-60.52 180.01-36.31 160.01-24.2 220.01-133.14l580.02-847.23c200.01-302.58 100-169.45 960.04-169.45l560.02 1137.72c60 96.82 0 48.41 80 96.82 40.01 12.1 460.02 157.34 480.02 157.34l3920.16-1924.43c100-60.52 20 12.1 80.01-84.72 20-36.31 140-411.52 140-447.83 0-133.14-560.02-1065.1-580.02-1210.33-20-108.94 360.01-629.38 440.02-750.41 140 0 160.01 24.2 300.01 24.2l960.04 72.62c60 0 40 36.31 200.01-96.82 460.01-411.52 260.01-242.07 320.01-689.89l220.01-3146.87c40-1052.99 100-738.31-160.01-1089.31-160.01-193.65-200.01-193.65-500.02-193.65l-920.04-60.52c-160-24.2-140-48.41-200.01-169.45-60-145.24-140-302.58-220.01-447.83-100-181.55-100-108.93 120-423.62l380.02-580.96c200.01-278.37 200.01-205.75 140-459.92-20-96.83-40-205.76-60-278.38-40-108.93-280.01-242.07-380.01-302.58l-3220.13-2166.5c-120-72.62-280.01-12.1-520.02 36.31-160.01 36.31-160.01 96.82-320.02 351-200.01 290.48-360.02 544.65-540.02 823.03-160.01 0-260.01-24.21-440.02-24.21-140.01 0-240.01-24.21-420.02-24.21-40-169.45-340.01-738.3-440.02-931.96-120.01-242.07-60-278.37-580.03-435.72-100-36.31-140 12.1-240.01 60.52l-3680.15 1815.51c-200.01 84.73-120.01 36.31-260.01 423.62-60 205.76-60 145.24 100 472.03 60 84.72 80 133.14 120 217.86l340.02 726.21z" fill="#f2a938" data-color="4"/>
        <path d="M29448.29 7068.36v-157.35c0-290.48 300.01-605.17 600.02-605.17 340.01 0 600.02 108.93 720.03 435.72 160.01 387.31-80.01 835.13-480.02 919.85-480.02 96.83-840.03-254.17-840.03-593.06zm2180.09-363.1c0-1888.13-2480.11-2287.53-3140.13-689.89-140 290.48-180 665.68-100 1016.68 360.02 1391.89 2080.09 1742.88 2940.13 605.17 160-217.86 300.01-568.86 300.01-931.96z" fill="#f2a938" data-color="4"/>
        <path d="M28688.26 4139.35c-80 0-620.02 145.24-720.03 217.86l-1680.07 1791.3c-100 121.03-240.01 205.75-320.01 338.89 80-24.2 460.02-363.1 560.02-447.83l1340.05-1089.3c520.02-472.03 380.01-363.1 1020.04-363.1h700.03c-20-145.24-380.01-447.83-520.02-617.27-340.01-423.62-1120.05-1210.34-1520.06-1670.26-60-72.62-60-96.83-140-157.35 20 108.93 240.01 375.2 300.01 496.24z" fill="#f2a938" data-color="4"/>
        <path fill="#ee8d37" d="M25508.13 17126.26v24.2l40-24.2z" data-color="5"/>
    </g>
</svg>
